<?xml version="1.0" encoding="utf-8"?>
<!-- Generator: Adobe Illustrator 21.0.2, SVG Export Plug-In . SVG Version: 6.00 Build 0)  -->
<svg version="1.1" id="Слой_1" xmlns="http://www.w3.org/2000/svg" xmlns:xlink="http://www.w3.org/1999/xlink" x="0px" y="0px"
	 viewBox="0 0 23.6 23.6" style="enable-background:new 0 0 23.6 23.6;" xml:space="preserve" fill="#FFF">

<path class="st2" d="M17.1,0H6.5C2.9,0,0,2.9,0,6.5v10.6c0,3.6,2.9,6.5,6.5,6.5h10.6c3.6,0,6.5-2.9,6.5-6.5V6.5
	C23.6,2.9,20.6,0,17.1,0z M21.5,17.1c0,2.4-2,4.4-4.4,4.4H6.5c-2.4,0-4.4-2-4.4-4.4V6.5c0-2.4,2-4.4,4.4-4.4h10.6
	c2.4,0,4.4,2,4.4,4.4L21.5,17.1L21.5,17.1z"/>
<path class="st2" d="M11.8,5.7c-3.3,0-6.1,2.7-6.1,6.1c0,3.3,2.7,6.1,6.1,6.1s6.1-2.7,6.1-6.1C17.9,8.4,15.1,5.7,11.8,5.7z
	 M11.8,15.8c-2.2,0-4-1.8-4-4c0-2.2,1.8-4,4-4s4,1.8,4,4C15.8,14,14,15.8,11.8,15.8z"/>
<path class="st2" d="M18.1,3.9c-0.4,0-0.8,0.2-1.1,0.4c-0.3,0.3-0.5,0.7-0.5,1.1c0,0.4,0.2,0.8,0.5,1.1C17.3,6.8,17.7,7,18.1,7
	c0.4,0,0.8-0.2,1.1-0.4c0.3-0.3,0.4-0.7,0.4-1.1c0-0.4-0.2-0.8-0.4-1.1C18.9,4.1,18.5,3.9,18.1,3.9z"/>
</svg>
