<?xml version="1.0" encoding="utf-8"?>
<!-- Generator: Adobe Illustrator 21.0.2, SVG Export Plug-In . SVG Version: 6.00 Build 0)  -->
<svg version="1.1" id="Слой_1" xmlns="http://www.w3.org/2000/svg" xmlns:xlink="http://www.w3.org/1999/xlink" x="0px" y="0px"
	 viewBox="0 0 14.7 24.5" style="enable-background:new 0 0 14.7 24.5;" xml:space="preserve">
<style type="text/css">
	.st0{fill:#F5F4FF;}
	.st1{fill:#1B274C;}
	.st2{fill:#95A4CB;}
	.st3{fill:#4ACD67;}
	.st4{fill:none;stroke:#657CAA;stroke-width:0.25;stroke-miterlimit:10;}
	.st5{opacity:0.85;fill:#1B274C;}
	.st6{fill:none;stroke:#FFFFFF;stroke-miterlimit:10;}
	.st7{opacity:0.11;}
	.st8{fill:none;stroke:#1B274C;stroke-width:2;stroke-miterlimit:10;}
	.st9{fill:#657CAA;}
	.st10{fill:#80D886;}
	.st11{fill:#BCC8E4;}
	.st12{fill:#BCF1C4;}
	.st13{fill:#94D7A1;}
	.st14{fill:#D5DDEF;}
	.st15{fill:#FFFFFF;}
	.st16{fill:url(#SVGID_3_);}
	.st17{fill:none;stroke:#1B274C;stroke-miterlimit:10;}
	.st18{opacity:0.85;fill:#4ACD67;}
	.st19{fill:url(#SVGID_6_);}
	.st20{opacity:0.85;fill:#94D7A1;}
	.st21{fill:url(#SVGID_9_);}
	.st22{fill:none;stroke:#B2B2B2;stroke-miterlimit:10;}
	.st23{fill:none;stroke:#F5F4FF;stroke-miterlimit:10;}
	.st24{fill:url(#SVGID_10_);}
	.st25{fill:url(#SVGID_11_);}
	.st26{fill:url(#SVGID_12_);}
	.st27{fill:none;stroke:#4ACD67;stroke-miterlimit:10;}
	.st28{fill:none;stroke:#BCC8E4;stroke-miterlimit:10;}
</style>
<g>
	<path class="st2" d="M6.1,17.2c-1.9-0.2-3.6-0.7-5.1-1.8c-0.2-0.1-0.4-0.3-0.5-0.4c-0.6-0.6-0.7-1.3-0.2-2c0.4-0.6,1.2-0.8,1.9-0.4
		c0.1,0.1,0.3,0.2,0.4,0.2c2.7,1.9,6.5,1.9,9.2,0.1c0.3-0.2,0.6-0.4,0.9-0.5c0.7-0.2,1.3,0.1,1.6,0.6c0.4,0.7,0.4,1.3-0.1,1.8
		c-0.8,0.8-1.7,1.3-2.7,1.7c-1,0.4-2,0.6-3,0.7c0.2,0.2,0.2,0.3,0.3,0.4c1.4,1.4,2.8,2.8,4.2,4.2c0.5,0.5,0.6,1.1,0.3,1.6
		c-0.3,0.6-0.9,1-1.6,1c-0.4,0-0.7-0.2-1-0.5c-1.1-1.1-2.1-2.1-3.2-3.2c-0.3-0.3-0.4-0.3-0.7,0c-1.1,1.1-2.2,2.2-3.3,3.3
		c-0.5,0.5-1.1,0.6-1.6,0.3c-0.6-0.3-1-0.9-1-1.5c0-0.4,0.2-0.7,0.5-1C3,20.4,4.4,19,5.8,17.6C5.9,17.5,6,17.4,6.1,17.2z"/>
	<path class="st2" d="M7.3,12.4c-3.4,0-6.2-2.8-6.1-6.2C1.2,2.8,4,0,7.4,0c3.4,0,6.2,2.8,6.2,6.3C13.5,9.7,10.7,12.4,7.3,12.4z
		 M10.4,6.2c0-1.7-1.3-3-3-3c-1.7,0-3,1.4-3,3.1c0,1.7,1.4,3,3,3C9,9.2,10.4,7.9,10.4,6.2z"/>
</g>
</svg>
