<?xml version="1.0" encoding="utf-8"?>
<!-- Generator: Adobe Illustrator 21.0.2, SVG Export Plug-In . SVG Version: 6.00 Build 0)  -->
<svg version="1.1" id="Слой_1" xmlns="http://www.w3.org/2000/svg" xmlns:xlink="http://www.w3.org/1999/xlink" x="0px" y="0px"
	 viewBox="0 0 26.6 15" style="enable-background:new 0 0 26.6 15;" xml:space="preserve" fill="#FFF">

<path class="st2" d="M25.5,12.2c-0.8-0.9-1.7-1.8-2.6-2.6c-0.8-0.8-0.8-1.2-0.2-2.1c0.7-1,1.4-1.9,2.2-2.9c0.7-0.9,1.3-1.8,1.7-2.9
	c0.2-0.7,0-1-0.7-1.1c-0.1,0-0.2,0-0.4,0l-4.2,0c-0.5,0-0.8,0.2-1,0.7C20,1.8,19.7,2.4,19.4,3C18.8,4.4,18,5.7,17,6.8
	c-0.2,0.2-0.5,0.6-0.9,0.4c-0.5-0.2-0.6-1-0.6-1.2l0-4.9c-0.1-0.7-0.2-1-0.9-1.1l-4.4,0C9.6,0,9.3,0.2,9,0.6C8.8,0.8,8.7,0.9,9.1,1
	c0.7,0.1,1.1,0.6,1.2,1.3c0.2,1.2,0.2,2.3,0.1,3.5c0,0.3-0.1,0.7-0.2,1c-0.2,0.5-0.6,0.6-1,0.3c-0.4-0.3-0.7-0.7-1-1.1
	C7.2,4.6,6.3,3,5.7,1.3C5.5,0.8,5.1,0.5,4.6,0.5c-1.3,0-2.5,0-3.8,0c-0.8,0-1,0.4-0.7,1.1C1.5,4.7,3,7.6,5,10.3
	c1,1.4,2.2,2.6,3.7,3.5c1.7,1,3.6,1.3,5.5,1.2c0.9,0,1.2-0.3,1.2-1.2c0-0.6,0.1-1.2,0.4-1.8c0.3-0.6,0.8-0.7,1.3-0.3
	c0.3,0.2,0.5,0.4,0.7,0.6c0.5,0.6,1,1.1,1.5,1.7c0.7,0.7,1.5,1.1,2.5,1l3.9,0c0.6,0,0.9-0.8,0.6-1.5C26.2,13,25.8,12.6,25.5,12.2z"
	/>
</svg>
